<svg width="50" height="50" viewBox="0 0 50 50" fill="none" xmlns="http://www.w3.org/2000/svg">
<path d="M29.8333 39.7292C29.8333 41 28.9999 42.6667 27.9374 43.3125L25 45.2083C22.2708 46.8958 18.4791 45 18.4791 41.625V30.4792C18.4791 29 17.6458 27.1042 16.7916 26.0625L8.79159 17.6458C7.72909 16.5833 6.89581 14.7083 6.89581 13.4375V8.60416C6.89581 6.08332 8.79169 4.1875 11.1042 4.1875H38.8958C41.2083 4.1875 43.1042 6.08331 43.1042 8.39581V13.0208C43.1042 14.7083 42.0416 16.8125 41 17.8542" stroke="white" stroke-width="2" stroke-miterlimit="10" stroke-linecap="round" stroke-linejoin="round"/>
<path d="M33.4792 34.4166C37.1611 34.4166 40.1459 31.4319 40.1459 27.75C40.1459 24.0681 37.1611 21.0833 33.4792 21.0833C29.7973 21.0833 26.8125 24.0681 26.8125 27.75C26.8125 31.4319 29.7973 34.4166 33.4792 34.4166Z" stroke="white" stroke-width="2" stroke-linecap="round" stroke-linejoin="round"/>
<path d="M41.3958 35.6666L39.3125 33.5833" stroke="white" stroke-width="2" stroke-linecap="round" stroke-linejoin="round"/>
</svg>
