<svg width="70" height="70" viewBox="0 0 70 70" fill="none" xmlns="http://www.w3.org/2000/svg">
<path d="M37.5958 17.15H14.904C9.91654 17.15 5.83325 21.2333 5.83325 26.2208V59.3542C5.83325 63.5834 8.86658 65.3917 12.5707 63.3208L24.0332 56.9333C25.2582 56.2625 27.2416 56.2625 28.4374 56.9333L39.8999 63.3208C43.6041 65.3917 46.6374 63.5834 46.6374 59.3542V26.2208C46.6666 21.2333 42.5833 17.15 37.5958 17.15Z" stroke="white" stroke-width="2" stroke-linecap="round" stroke-linejoin="round"/>
<path d="M46.6666 26.2208V59.3542C46.6666 63.5834 43.6333 65.3625 39.9291 63.3208L28.4666 56.9333C27.2416 56.2625 25.2582 56.2625 24.0332 56.9333L12.5707 63.3208C8.86658 65.3625 5.83325 63.5834 5.83325 59.3542V26.2208C5.83325 21.2333 9.91654 17.15 14.904 17.15H37.5958C42.5833 17.15 46.6666 21.2333 46.6666 26.2208Z" stroke="white" stroke-width="2" stroke-linecap="round" stroke-linejoin="round"/>
<path d="M64.1666 14.904V48.0374C64.1666 52.2666 61.1333 54.0457 57.4291 52.004L46.6666 45.9957V26.2207C46.6666 21.2332 42.5833 17.1499 37.5958 17.1499H23.3333V14.904C23.3333 9.91654 27.4165 5.83325 32.404 5.83325H55.0958C60.0833 5.83325 64.1666 9.91654 64.1666 14.904Z" stroke="white" stroke-width="2" stroke-linecap="round" stroke-linejoin="round"/>
</svg>
