<svg width="70" height="70" viewBox="0 0 70 70" fill="none" xmlns="http://www.w3.org/2000/svg">
<path d="M31.3541 7.14567C33.3666 5.42483 36.6624 5.42483 38.7041 7.14567L43.3125 11.1126C44.1875 11.871 45.8208 12.4834 46.9874 12.4834H51.9458C55.0375 12.4834 57.5749 15.0207 57.5749 18.1124V23.0709C57.5749 24.2084 58.1875 25.8709 58.9458 26.7459L62.9125 31.3541C64.6333 33.3666 64.6333 36.6625 62.9125 38.7042L58.9458 43.3124C58.1875 44.1874 57.5749 45.8208 57.5749 46.9874V51.946C57.5749 55.0376 55.0375 57.5749 51.9458 57.5749H46.9874C45.8499 57.5749 44.1875 58.1874 43.3125 58.9457L38.7041 62.9123C36.6916 64.6332 33.3958 64.6332 31.3541 62.9123L26.7458 58.9457C25.8708 58.1874 24.2375 57.5749 23.0708 57.5749H18.025C14.9333 57.5749 12.3958 55.0376 12.3958 51.946V46.9582C12.3958 45.8207 11.7833 44.1874 11.0542 43.3124L7.11665 38.675C5.42498 36.6625 5.42498 33.3958 7.11665 31.3833L11.0542 26.7459C11.7833 25.8709 12.3958 24.2376 12.3958 23.1001V18.1124C12.3958 15.0207 14.9333 12.4834 18.025 12.4834H23.0708C24.2083 12.4834 25.8708 11.871 26.7458 11.1126L31.3541 7.14567Z" stroke="white" stroke-width="1.5" stroke-linecap="round" stroke-linejoin="round"/>
<path d="M28.8459 43.2249L33.075 46.4916C33.6291 47.0458 34.8542 47.3083 35.6709 47.3083H40.8333C42.4667 47.3083 44.2458 46.0834 44.6541 44.4501L47.9208 34.4749C48.5916 32.5791 47.3667 30.9167 45.325 30.9167H39.8709C39.0542 30.9167 38.3834 30.246 38.5 29.2835L39.1708 24.9085C39.4333 23.6835 38.6167 22.3126 37.3917 21.9043C36.3125 21.496 34.9417 22.05 34.3875 22.8667L28.7875 31.1791" stroke="white" stroke-width="1.5" stroke-miterlimit="10"/>
<path d="M21.875 43.2248V29.8666C21.875 27.9416 22.6917 27.2708 24.6167 27.2708H25.9875C27.8833 27.2708 28.7292 27.9416 28.7292 29.8666V43.2248C28.7292 45.1207 27.9125 45.8207 25.9875 45.8207H24.6167C22.6917 45.8207 21.875 45.1498 21.875 43.2248Z" stroke="white" stroke-width="1.5" stroke-linecap="round" stroke-linejoin="round"/>
</svg>
