<svg width="50" height="50" viewBox="0 0 50 50" fill="none" xmlns="http://www.w3.org/2000/svg">
<path d="M25.0002 25.0001C30.7531 25.0001 35.4168 20.3364 35.4168 14.5834C35.4168 8.83045 30.7531 4.16675 25.0002 4.16675C19.2472 4.16675 14.5835 8.83045 14.5835 14.5834C14.5835 20.3364 19.2472 25.0001 25.0002 25.0001Z" stroke="white" stroke-width="1.5" stroke-linecap="round" stroke-linejoin="round"/>
<path d="M7.104 45.8333C7.104 37.7708 15.1249 31.25 24.9999 31.25" stroke="white" stroke-width="1.5" stroke-linecap="round" stroke-linejoin="round"/>
<path d="M37.9167 44.5834C41.5986 44.5834 44.5834 41.5986 44.5834 37.9167C44.5834 34.2348 41.5986 31.25 37.9167 31.25C34.2348 31.25 31.25 34.2348 31.25 37.9167C31.25 41.5986 34.2348 44.5834 37.9167 44.5834Z" stroke="white" stroke-width="1.5" stroke-linecap="round" stroke-linejoin="round"/>
<path d="M45.8333 45.8333L43.75 43.75" stroke="white" stroke-width="1.5" stroke-linecap="round" stroke-linejoin="round"/>
</svg>
